<svg width="300" height="42" viewBox="0 0 300 42" fill="none" xmlns="http://www.w3.org/2000/svg">
<path d="M149.639 11.5281C147.917 10.6066 145.433 10.8069 144.418 12.7032C143.229 14.9201 144.498 17.9248 146.02 19.6208C147.957 21.7575 150.881 22.6388 153.659 22.9861C156.557 23.3466 159.522 23.2398 162.419 22.8525C174.518 21.2099 185.215 14.6396 197.101 12.1157C203.698 10.7135 210.428 10.9672 216.958 12.5964C220.284 13.4244 223.515 14.5595 226.654 15.9483C229.739 17.3105 232.676 18.9531 235.735 20.3553C238.726 21.7174 241.784 22.7323 245.056 23.1597C248.541 23.6137 252.094 23.4802 255.592 23.1597C259.398 22.7991 263.164 22.0112 266.863 21.0898C271.484 19.9279 276.051 18.4589 280.431 16.576C284.171 14.9735 288.31 13.0104 291.061 9.91219C291.622 9.28453 292.076 8.60348 292.557 7.92241C292.891 7.45501 292.116 7.01431 291.796 7.46836C290.848 8.81714 289.325 9.93891 288.003 10.8871C286.361 12.0756 284.598 13.0772 282.795 13.9719C278.735 16.0018 274.422 17.5108 270.069 18.7794C266.182 19.9012 262.243 20.8494 258.25 21.4637C252.841 22.305 247.032 22.5988 241.704 21.1832C238.566 20.3553 235.641 18.913 232.757 17.4707C229.992 16.0819 227.215 14.7331 224.33 13.6113C218.401 11.3277 212.071 9.88548 205.687 9.91219C193.842 9.9656 183.212 15.6679 172.195 19.2602C166.8 21.023 161.178 22.2783 155.462 21.9311C152.591 21.7575 149.399 21.1966 147.236 19.1534C146.247 18.2186 145.54 17.0167 145.259 15.6946C145.046 14.6797 145.005 13.3977 145.82 12.6498C146.808 11.7284 148.117 11.6082 149.319 12.1557C149.733 12.3427 150.093 11.7551 149.679 11.5414L149.639 11.5281Z" fill="#D6B49B"/>
<path d="M203.457 11.154C207.691 9.33779 211.857 7.32129 216.304 6.05263C220.871 4.74391 225.438 4.43676 230.139 5.15789C230.673 5.23801 230.914 4.47682 230.366 4.32993C225.839 3.10133 220.818 3.82247 216.371 5.10448C211.777 6.42656 207.41 8.46977 203.19 10.6999C202.883 10.8602 203.15 11.2875 203.457 11.1673V11.154Z" fill="#D6B49B"/>
<path d="M230.54 5.03768C230.9 4.55692 231.368 4.15629 231.862 3.82243C232.116 3.64883 232.383 3.48858 232.663 3.36839C232.957 3.23485 233.237 3.07459 233.518 2.9277C233.758 2.80751 233.638 2.44695 233.384 2.43359C233.024 2.43359 232.676 2.47366 232.343 2.62055C232.009 2.7541 231.675 2.91434 231.381 3.11466C230.78 3.51528 230.259 4.04946 229.845 4.63705C229.725 4.81065 229.819 5.07774 229.992 5.18458C230.193 5.30477 230.406 5.21128 230.54 5.03768Z" fill="#D6B49B"/>
<path d="M229.912 4.74398C229.725 5.4117 229.725 6.10613 229.899 6.77384C230.072 7.4282 230.446 8.1894 231.114 8.44313C231.368 8.53661 231.635 8.24281 231.555 8.00244C231.461 7.73535 231.301 7.48161 231.167 7.21453C231.127 7.14776 231.101 7.08099 231.061 7.01422C231.047 6.98751 231.034 6.9608 231.021 6.92074C230.981 6.84062 231.047 6.98751 231.021 6.90738C230.967 6.77384 230.914 6.62694 230.874 6.49339C230.834 6.35985 230.807 6.22631 230.78 6.07941C230.78 6.05271 230.78 6.01264 230.78 6.06606C230.78 6.03935 230.78 5.99929 230.78 5.97258C230.78 5.89245 230.78 5.82568 230.767 5.74556C230.767 5.61201 230.767 5.46512 230.767 5.33158C230.767 5.30487 230.767 5.26481 230.767 5.2381C230.767 5.29151 230.767 5.23809 230.767 5.22474C230.78 5.14461 230.794 5.06449 230.82 4.98436C230.887 4.74398 230.74 4.4769 230.486 4.41013C230.246 4.34335 229.979 4.49025 229.912 4.74398Z" fill="#D6B49B"/>
<path d="M230.38 5.13115C230.794 5.4383 231.234 5.67868 231.715 5.86564C231.942 5.95912 232.156 6.01254 232.396 6.0526C232.543 6.07931 232.69 6.10602 232.837 6.10602C232.957 6.10602 233.09 6.09266 233.211 6.07931C233.358 6.06595 233.491 5.97248 233.518 5.81222C233.531 5.66533 233.451 5.51843 233.291 5.47837C233.064 5.4116 232.837 5.33146 232.623 5.26469C232.409 5.19792 232.182 5.13116 231.969 5.05103C231.915 5.03768 231.875 5.01097 231.822 4.99761C231.768 4.98426 231.768 4.9709 231.808 4.99761C231.782 4.99761 231.755 4.9709 231.728 4.95755C231.621 4.90413 231.515 4.85071 231.408 4.79729C231.194 4.69046 231.007 4.55692 230.807 4.41002C230.633 4.27648 230.326 4.36996 230.219 4.55692C230.099 4.78394 230.179 4.99761 230.366 5.14451L230.38 5.13115Z" fill="#D6B49B"/>
<path d="M230.927 5.06443C231.394 4.86411 231.889 4.73057 232.396 4.63709C232.636 4.59703 232.85 4.57032 233.117 4.54361C233.411 4.5169 233.651 4.45013 233.945 4.37001C234.279 4.28988 234.252 3.82248 233.945 3.71565C233.651 3.62217 233.371 3.56875 233.064 3.58211C232.757 3.60882 232.449 3.64888 232.156 3.71565C231.581 3.83584 231.034 4.03615 230.5 4.28989C230.286 4.39672 230.233 4.69051 230.339 4.87747C230.473 5.10449 230.713 5.1312 230.927 5.03772V5.06443Z" fill="#D6B49B"/>
<path d="M230.353 5.22488C230.54 5.71899 230.767 6.19974 231.074 6.64043C231.221 6.86746 231.394 7.08113 231.568 7.28144C231.742 7.48176 231.942 7.64202 232.142 7.80227C232.303 7.93581 232.543 7.97588 232.703 7.80227C232.85 7.64202 232.863 7.40163 232.703 7.24138C232.53 7.06778 232.369 6.89417 232.222 6.70721C232.142 6.61373 232.062 6.52025 231.982 6.42677C231.942 6.38671 231.969 6.40006 231.982 6.42677C231.955 6.40006 231.942 6.37336 231.915 6.34665C231.875 6.29323 231.849 6.25317 231.808 6.19975C231.675 6.01279 231.555 5.81247 231.448 5.5988C231.394 5.49196 231.341 5.38513 231.288 5.2783C231.274 5.25159 231.261 5.21153 231.248 5.18482C231.221 5.1314 231.248 5.15811 231.248 5.18482C231.221 5.11805 231.194 5.06463 231.181 4.99786C231.101 4.79755 230.887 4.62394 230.66 4.70406C230.46 4.77084 230.286 4.99786 230.366 5.22488H230.353Z" fill="#D6B49B"/>
<path d="M232.556 3.32839C233.611 3.30168 234.653 3.55541 235.574 4.06287C236.496 4.58369 237.19 5.33153 237.858 6.13279C238.018 6.31975 238.259 6.07937 238.178 5.89241C237.724 4.87749 236.763 4.10294 235.801 3.62219C234.8 3.11472 233.691 2.87434 232.57 2.94111C232.316 2.95447 232.316 3.34175 232.57 3.34175L232.556 3.32839Z" fill="#D6B49B"/>
<path d="M231.181 7.94913C232.409 8.6302 233.865 8.76375 235.214 8.44325C235.908 8.283 236.549 7.9892 237.123 7.57522C237.337 7.42832 237.671 7.21465 237.724 6.93421C237.764 6.73389 237.591 6.48017 237.417 6.38669C237.377 6.46681 237.324 6.54693 237.284 6.61371C237.818 6.86744 238.272 6.33326 238.005 5.8258C237.898 5.61213 237.577 5.7991 237.684 6.01277C237.791 6.22644 237.591 6.41339 237.391 6.35997C237.217 6.31991 237.15 6.57364 237.324 6.61371C237.551 6.66712 237.15 7.00099 237.123 7.01434C237.017 7.09447 236.896 7.16123 236.776 7.24136C236.536 7.38826 236.269 7.5218 236.015 7.62864C235.534 7.82895 235.067 8.00254 234.546 8.09602C233.451 8.30969 232.316 8.18951 231.314 7.6954C231.167 7.61528 231.034 7.84231 231.181 7.92243V7.94913Z" fill="#D6B49B"/>
<path d="M200.546 11.1007C201.694 13.9986 203.684 16.5493 205.714 18.8729C206.823 20.1282 207.998 21.3301 209.266 22.4251C210.321 23.3332 211.456 24.2146 212.765 24.7488C213.233 24.9357 213.486 24.2146 213.099 23.9742C208.078 20.836 203.885 16.0818 201.04 10.9137C200.893 10.66 200.439 10.8336 200.546 11.1141V11.1007Z" fill="#D6B49B"/>
<path d="M212.498 24.2144C212.458 24.9088 212.525 25.63 212.738 26.2977C212.965 26.9788 213.286 27.6198 213.847 28.0738C214.087 28.2608 214.381 28.0337 214.261 27.7533C214.02 27.1791 213.727 26.6315 213.553 26.0439C213.366 25.443 213.273 24.8554 213.299 24.2278C213.299 24.0141 213.112 23.8271 212.899 23.8271C212.672 23.8271 212.511 24.0141 212.498 24.2278V24.2144Z" fill="#D6B49B"/>
<path d="M213.473 24.535C213.54 24.4015 213.606 24.2813 213.673 24.1611C213.713 24.0943 213.753 24.0409 213.793 23.9875C213.82 23.9474 213.847 23.9207 213.793 23.9875C213.82 23.9608 213.847 23.9207 213.874 23.894C213.967 23.7872 214.06 23.6937 214.154 23.6002C214.207 23.5468 214.261 23.5067 214.314 23.4533C214.274 23.48 214.381 23.3865 214.314 23.4533C214.341 23.4266 214.381 23.4132 214.408 23.3865C214.515 23.3064 214.635 23.2396 214.755 23.1729C214.822 23.1328 214.875 23.1061 214.942 23.066C214.969 23.0527 214.995 23.0393 215.035 23.026C215.049 23.026 215.169 22.9726 215.062 23.026C215.156 22.9859 215.236 22.9592 215.329 22.9191C215.369 22.9058 215.436 22.8791 215.356 22.9058C215.396 22.8924 215.423 22.8791 215.463 22.8657C215.623 22.8123 215.77 22.7455 215.903 22.6654C216.17 22.5051 216.117 22.1045 215.823 22.011C215.503 21.9042 215.102 21.971 214.782 22.0912C214.461 22.2114 214.167 22.3583 213.887 22.5719C213.353 22.9859 212.899 23.5067 212.632 24.121C212.538 24.348 212.551 24.6418 212.805 24.762C213.019 24.8689 213.339 24.8288 213.446 24.5884L213.473 24.535Z" fill="#D6B49B"/>
<path d="M213.166 24.9626C213.406 24.9626 213.58 24.9893 213.78 25.0294C214.007 25.0694 214.247 25.1362 214.461 25.203C214.675 25.2697 214.888 25.3499 215.102 25.4433C215.129 25.4433 215.129 25.4433 215.102 25.4433C215.129 25.4433 215.155 25.47 215.182 25.4834C215.249 25.5101 215.329 25.5502 215.396 25.5769C215.503 25.617 215.623 25.657 215.73 25.6971C215.85 25.7505 216.01 25.657 216.077 25.5502C216.144 25.43 216.13 25.2697 216.024 25.1763C215.636 24.789 215.196 24.5353 214.675 24.3616C214.181 24.2014 213.66 24.1213 213.139 24.1079C212.912 24.1079 212.698 24.3082 212.712 24.5353C212.712 24.7756 212.899 24.9492 213.139 24.9626H213.166Z" fill="#D6B49B"/>
<path d="M212.845 24.8692C213.099 25.4033 213.42 25.8841 213.78 26.3515C213.954 26.5652 214.141 26.7655 214.328 26.9524C214.448 27.0593 214.595 27.1794 214.728 27.2596C214.862 27.3397 215.022 27.3931 215.169 27.4465C215.436 27.5534 215.716 27.1795 215.543 26.9524C215.369 26.7254 215.209 26.485 214.995 26.2847C214.808 26.0978 214.621 25.9108 214.448 25.7105C214.368 25.617 214.274 25.5102 214.194 25.4167C214.248 25.4834 214.194 25.4167 214.181 25.39C214.154 25.3633 214.141 25.3365 214.114 25.3098C214.074 25.2564 214.034 25.203 213.994 25.1362C213.834 24.9092 213.7 24.6822 213.566 24.4418C213.46 24.2415 213.166 24.1614 212.979 24.2816C212.765 24.4151 212.725 24.6555 212.819 24.8692H212.845Z" fill="#D6B49B"/>
<path d="M213.727 24.7223C214.515 24.2549 215.436 24.0012 216.331 23.9077C216.544 23.881 216.731 23.7475 216.731 23.5071C216.731 23.2934 216.544 23.1198 216.331 23.1064C215.262 23.1064 214.207 23.427 213.299 23.9878C213.099 24.108 213.032 24.3617 213.152 24.5621C213.273 24.7624 213.526 24.8291 213.727 24.709V24.7223Z" fill="#D6B49B"/>
<path d="M213.54 27.1662C214.381 27.9273 215.409 28.4482 216.518 28.6752C217.6 28.9022 218.815 28.8888 219.816 28.3814C220.03 28.2745 219.87 27.9674 219.656 28.0075C218.641 28.2078 217.64 28.368 216.598 28.1811C215.57 27.9941 214.608 27.5534 213.82 26.8857C213.633 26.7255 213.353 26.9925 213.54 27.1662Z" fill="#D6B49B"/>
<path d="M215.57 22.6788C216.638 22.9192 217.586 23.5202 218.307 24.3481C218.668 24.7621 218.935 25.2162 219.202 25.6836C219.336 25.9239 219.456 26.1777 219.549 26.4447C219.589 26.5649 219.629 26.6718 219.669 26.7919C219.669 26.832 219.803 27.3929 219.603 27.2994C219.563 27.3795 219.509 27.4597 219.469 27.5264C219.696 27.6333 219.709 27.9137 219.469 28.0072C219.255 28.1007 219.442 28.4212 219.656 28.3277C220.164 28.114 220.123 27.3929 219.576 27.2727C219.402 27.2326 219.336 27.4864 219.509 27.5264C219.709 27.5799 220.03 27.473 220.11 27.2727C220.244 26.9789 220.083 26.5516 219.99 26.2711C219.776 25.6168 219.469 25.0158 219.028 24.4817C218.187 23.4267 216.999 22.6388 215.65 22.4117C215.49 22.385 215.409 22.6254 215.583 22.6655L215.57 22.6788Z" fill="#D6B49B"/>
<path d="M176.441 18.4054C173.677 21.8107 170.619 25.0024 167.334 27.9003C163.982 30.8649 160.309 33.3622 156.69 35.9796C156.423 36.18 156.65 36.5939 156.957 36.4337C160.884 34.4172 164.423 31.6261 167.721 28.7016C171.086 25.7235 174.158 22.4384 176.922 18.8995C177.189 18.5523 176.722 18.0582 176.428 18.4054H176.441Z" fill="#D6B49B"/>
<path d="M173.771 21.3033C168.896 22.7723 164.489 25.3764 160.643 28.7016C158.694 30.3843 156.917 32.2672 155.315 34.2971C153.819 36.2067 152.19 38.3301 151.456 40.6671C151.362 40.9742 151.776 41.0944 151.95 40.8674C153.432 38.8909 154.594 36.7008 156.156 34.7645C157.679 32.8548 159.388 31.092 161.218 29.4762C164.917 26.2177 169.257 23.5469 173.944 21.9844C174.358 21.8375 174.185 21.1831 173.757 21.3167L173.771 21.3033Z" fill="#D6B49B"/>
<path d="M174.225 21.4767C173.797 21.8907 173.61 22.4916 173.357 23.0125C173.103 23.5199 172.849 24.0407 172.582 24.5482C172.021 25.6432 171.394 26.7249 170.713 27.7399C169.19 29.9967 167.294 31.8129 165.077 33.3754C162.98 34.8444 160.83 36.2866 158.614 37.5686C157.505 38.2096 156.383 38.7972 155.208 39.3047C154.567 39.5851 153.926 39.8389 153.258 40.0525C152.684 40.2395 152.03 40.3463 151.522 40.6802C151.269 40.8538 151.389 41.1876 151.669 41.2144C152.844 41.3479 154.34 40.5867 155.395 40.146C156.61 39.6385 157.786 39.051 158.934 38.41C161.338 37.0612 163.675 35.5254 165.918 33.9095C168.042 32.3738 169.871 30.5977 171.327 28.4076C172.061 27.2992 172.716 26.1374 173.303 24.9488C173.771 24.0007 174.599 22.7053 174.625 21.6236C174.625 21.4233 174.372 21.3165 174.225 21.4634V21.4767Z" fill="#D6B49B"/>
<path d="M167.107 4.73055C169.404 7.54831 172.195 9.84526 175.346 11.6614C176.869 12.5428 178.471 13.2773 180.114 13.8916C180.942 14.1988 181.783 14.4658 182.638 14.6929C183.506 14.9199 184.441 15.227 185.349 15.227C185.79 15.227 185.843 14.6261 185.456 14.4792C184.628 14.1854 183.72 14.1186 182.865 13.905C182.05 13.7046 181.236 13.4776 180.448 13.1972C178.752 12.6229 177.123 11.9018 175.56 11.0338C172.489 9.33779 169.751 7.04085 167.427 4.41005C167.24 4.19638 166.933 4.50353 167.107 4.73055Z" fill="#D6B49B"/>
<path d="M183.88 14.8129C179.166 14.6927 173.984 13.197 170.098 10.5128C168.162 9.17735 166.639 7.32109 165.117 5.54497C164.302 4.59682 163.501 3.66202 162.686 2.71387C161.952 1.85919 161.177 0.670652 160.189 0.109772C160.042 0.0296457 159.829 0.163196 159.895 0.336802C160.309 1.43186 161.378 2.39336 162.126 3.27474C162.967 4.26296 163.808 5.25118 164.636 6.2394C166.225 8.12236 167.841 10.0187 169.924 11.3808C171.968 12.7296 174.318 13.6911 176.642 14.4122C177.804 14.7728 178.992 15.0799 180.207 15.2402C181.503 15.4138 182.651 15.347 183.933 15.1601C184.147 15.1334 184.08 14.8129 183.88 14.7995V14.8129Z" fill="#D6B49B"/>
<path d="M160.056 0.390364C165.291 1.69909 170.579 2.96775 175.306 5.66532C177.443 6.88056 179.433 8.38959 181.102 10.2058C182.571 11.7949 183.92 13.945 186.083 14.6528C186.31 14.7329 186.524 14.3857 186.324 14.2388C184.401 12.703 183.012 10.78 181.289 9.04396C179.593 7.33461 177.617 5.91905 175.507 4.75723C170.793 2.16649 165.424 0.884482 160.149 0.00309778C159.896 -0.0369651 159.789 0.323592 160.042 0.390364H160.056Z" fill="#D6B49B"/>
<path d="M199.958 10.6199C195.391 12.169 191.345 15.2673 188.367 19.0465C185.389 22.8258 183.599 27.3662 179.927 30.6113C179.753 30.7582 179.967 31.012 180.154 30.9185C184.24 28.675 185.936 23.814 188.594 20.2351C191.585 16.2021 195.658 13.2908 200.185 11.1808C200.493 11.0339 200.279 10.5265 199.958 10.6333V10.6199Z" fill="#D6B49B"/>
<path d="M195.511 12.6766C190.477 13.9853 186.217 17.217 182.865 21.1165C180.982 23.3066 179.339 25.6837 177.804 28.1141C176.308 30.4778 175.026 33.122 173.05 35.1385C172.809 35.3789 173.116 35.7795 173.41 35.6059C175.547 34.3372 176.655 31.6397 177.924 29.5965C179.486 27.0859 181.116 24.6153 183.012 22.3317C186.364 18.2854 190.57 14.7865 195.698 13.3576C196.139 13.2374 195.952 12.5697 195.511 12.6766Z" fill="#D6B49B"/>
<path d="M173.357 35.7924C182.691 34.7374 190.944 28.6478 195.071 20.2613C196.246 17.8709 197.368 15.1333 197.221 12.4224C197.194 11.9015 196.393 11.9015 196.406 12.4224C196.5 15.4004 194.991 18.5653 193.562 21.1026C192.213 23.4931 190.517 25.6832 188.527 27.5928C184.321 31.6258 178.979 34.1365 173.277 35.1781C172.929 35.2449 172.996 35.8458 173.357 35.8057V35.7924Z" fill="#D6B49B"/>
<path d="M215.262 11.8085C216.638 12.3827 217.466 13.6647 218.187 14.9066C218.908 16.1486 219.549 17.4306 220.19 18.726C221.419 21.2366 222.594 23.8006 224.116 26.151C226.827 30.3309 231.114 34.1235 236.402 33.7496C236.963 33.7095 236.977 32.8548 236.402 32.8682C230.673 33.0017 226.547 28.5948 223.876 24.0143C222.46 21.5838 221.312 19.0064 219.963 16.5359C218.868 14.5327 217.68 12.0889 215.423 11.2075C215.049 11.0606 214.888 11.6615 215.249 11.8218L215.262 11.8085Z" fill="#D6B49B"/>
<path d="M217.292 12.3693C221.379 14.9066 225.572 17.3504 229.031 20.7424C230.78 22.4651 232.343 24.3614 233.531 26.5115C234.172 27.6599 234.706 28.8618 235.12 30.1171C235.521 31.3057 235.681 32.5743 236.082 33.7628C236.229 34.1902 236.896 34.1368 236.896 33.656C236.896 32.4007 236.429 31.0519 236.028 29.8634C235.614 28.6348 235.094 27.4329 234.479 26.2844C233.304 24.0943 231.755 22.1046 229.952 20.3818C226.333 16.9097 221.94 14.2923 217.559 11.8885C217.239 11.7149 216.958 12.1823 217.279 12.3826L217.292 12.3693Z" fill="#D6B49B"/>
<path d="M217.787 12.7433C220.297 15.3207 222.621 18.1117 224.878 20.9028C226.039 22.3317 227.161 23.7873 228.256 25.2696C229.298 26.6852 230.259 28.1541 231.408 29.4896C231.635 29.7433 231.995 29.4228 231.862 29.1424C231.047 27.5131 229.926 26.0442 228.844 24.5752C227.789 23.1596 226.707 21.7708 225.585 20.422C223.248 17.6043 220.684 15.0269 218.054 12.4896C217.88 12.3293 217.64 12.583 217.8 12.7433H217.787Z" fill="#D6B49B"/>
<path d="M222.808 13.598C228.189 14.8934 233.598 13.3309 238.859 12.2091C241.61 11.6215 244.388 11.1942 247.219 11.2476C248.648 11.2743 250.064 11.4212 251.466 11.6482C252.748 11.8619 254.097 12.4094 255.405 12.3827C255.699 12.3827 255.766 12.0088 255.552 11.8486C254.537 11.1408 253.082 10.9405 251.88 10.7268C250.598 10.4998 249.302 10.3662 248.007 10.3128C245.269 10.206 242.559 10.5398 239.888 11.0874C234.306 12.2225 228.71 14.0787 222.954 13.1039C222.647 13.0504 222.514 13.5045 222.821 13.5713L222.808 13.598Z" fill="#D6B49B"/>
<path d="M224.757 14.0651C229.391 16.7092 234.68 18.3118 240.048 18.1515C242.772 18.0714 245.43 17.4838 247.981 16.5089C249.249 16.0148 250.491 15.4673 251.706 14.8396C252.948 14.212 254.284 13.5843 255.446 12.7964C255.833 12.5293 255.606 11.7548 255.098 11.9685C252.681 12.9834 250.451 14.4123 247.994 15.4005C245.497 16.4021 242.893 17.0431 240.208 17.1766C234.933 17.4304 229.739 15.8813 224.998 13.6645C224.744 13.5443 224.517 13.9048 224.771 14.0517L224.757 14.0651Z" fill="#D6B49B"/>
<path d="M224.263 14.3191C228.737 16.0151 233.691 16.3356 238.432 15.9349C243.119 15.5477 248.047 14.5594 252.347 12.6231C252.681 12.4762 252.441 11.9687 252.107 12.0622C249.85 12.6364 247.62 13.3576 245.35 13.8917C243.026 14.4526 240.662 14.8533 238.272 15.0803C233.571 15.521 228.951 15.0803 224.397 13.7849C224.05 13.6914 223.929 14.1855 224.25 14.3057L224.263 14.3191Z" fill="#D6B49B"/>
<path d="M261.068 21.8508C267.638 22.2647 274.462 21.8508 280.645 19.4069C285.813 17.3637 290.514 14.1453 294.293 10.0723C296.417 7.78869 298.42 5.19795 299.675 2.31342C299.849 1.91279 299.315 1.57893 299.074 1.9662C297.605 4.28985 296.163 6.60015 294.333 8.68342C292.531 10.7533 290.487 12.6229 288.271 14.2255C283.717 17.524 278.442 19.7408 272.9 20.6756C268.987 21.33 265.021 21.3567 261.068 21.3433C260.747 21.3433 260.761 21.8107 261.068 21.8374V21.8508Z" fill="#D6B49B"/>
<path d="M263.017 21.3167C267.892 19.2601 272.165 16.1619 276.599 13.3308C281.233 10.3795 286.134 7.90897 291.182 5.77228C292.624 5.15798 294.08 4.58375 295.548 4.00951C296.964 3.46198 298.46 3.02129 299.795 2.32687C300.222 2.09984 299.915 1.47219 299.475 1.57903C298.139 1.88618 296.844 2.47376 295.575 2.96787C294.28 3.47533 292.998 3.9828 291.716 4.51697C289.219 5.55861 286.748 6.66702 284.331 7.88226C279.497 10.2994 275.063 13.2907 270.589 16.3088C268.092 17.9915 265.528 19.5806 262.804 20.876C262.563 20.9962 262.737 21.4235 262.991 21.3167H263.017Z" fill="#D6B49B"/>
<path d="M150.734 12.1421C151.963 11.5946 153.312 11.7281 154.3 12.6897C155.061 13.4375 155.008 14.7195 154.807 15.681C154.18 18.6323 151.656 20.4485 148.905 21.2498C143.456 22.8256 137.273 21.8641 131.905 20.4485C120.821 17.5106 110.591 11.6213 99.0933 10.2058C92.8167 9.43121 86.4334 10.2191 80.3839 12.0086C77.2857 12.93 74.281 14.1052 71.3564 15.4674C68.5386 16.7761 65.8277 18.2851 62.9832 19.5271C59.885 20.8892 56.6533 21.7572 53.2747 21.9976C50.2165 22.2246 47.1183 22.0644 44.0735 21.7439C40.3878 21.3566 36.7287 20.542 33.1497 19.6205C28.7428 18.4854 24.3893 17.1099 20.2094 15.3205C16.5236 13.7313 12.9847 11.8083 9.93994 9.16412C9.35235 8.65666 8.7247 8.09578 8.27066 7.45477C7.95015 6.98737 7.1756 7.42806 7.50946 7.90881C8.56445 9.41785 9.64615 10.6865 11.1151 11.8083C12.8245 13.117 14.6674 14.1987 16.5904 15.1469C20.8103 17.2702 25.3107 18.8594 29.8379 20.1681C33.8976 21.3433 38.0374 22.3048 42.2306 22.879C48.0398 23.6936 54.2095 23.8806 59.8717 22.1044C63.0233 21.1162 65.9746 19.5938 68.9125 18.1115C71.9974 16.5624 75.1357 15.1202 78.4075 13.9984C84.8309 11.7949 91.6549 10.6732 98.4389 11.3943C110.658 12.6897 121.448 19.3268 133.307 22.0644C136.178 22.7321 139.116 23.1594 142.067 23.2129C144.939 23.2663 147.997 23.066 150.668 21.9308C153.151 20.8758 155.328 18.846 155.889 16.1217C156.316 14.0919 155.836 11.9285 153.712 11.1673C152.577 10.7666 151.429 10.9803 150.387 11.5278C149.973 11.7549 150.334 12.3291 150.748 12.1421H150.734Z" fill="#D6B49B"/>
<path d="M96.8365 10.6863C92.6165 8.45608 88.2496 6.41288 83.6558 5.09081C79.2221 3.80879 74.1876 3.08766 69.6605 4.31626C69.1129 4.46315 69.3533 5.22435 69.8875 5.14423C74.5882 4.42309 79.142 4.73024 83.7225 6.03896C88.1695 7.30762 92.3227 9.32413 96.5694 11.1403C96.8765 11.2739 97.157 10.8465 96.8365 10.6729V10.6863Z" fill="#D6B49B"/>
<path d="M70.1678 4.63691C69.7539 4.04932 69.233 3.51515 68.6321 3.11452C68.3383 2.9142 68.0178 2.7673 67.6839 2.63376C67.3501 2.48686 66.9895 2.43345 66.629 2.4468C66.3752 2.4468 66.2684 2.80737 66.4954 2.94091C66.7759 3.08781 67.0429 3.23471 67.3234 3.36825C67.6172 3.50179 67.8843 3.66204 68.1513 3.83565C68.6455 4.16951 69.0995 4.57014 69.4734 5.0509C69.607 5.2245 69.8206 5.31798 70.0209 5.19779C70.1946 5.09096 70.288 4.82387 70.1678 4.65026V4.63691Z" fill="#D6B49B"/>
<path d="M69.1931 4.99736C69.2064 5.06413 69.2331 5.14425 69.2465 5.21102C69.2465 5.21102 69.2599 5.3045 69.2465 5.26444C69.2465 5.22438 69.2465 5.31786 69.2465 5.31786C69.2599 5.4514 69.2599 5.59829 69.2599 5.73184C69.2599 5.81196 69.2599 5.87874 69.2599 5.95887C69.2599 5.98558 69.2599 6.02564 69.2599 6.05235C69.2599 6.13247 69.2599 5.98557 69.2599 6.0657C69.2331 6.21259 69.2064 6.35949 69.1664 6.49303C69.1263 6.62658 69.0729 6.76012 69.0328 6.89367C69.0328 6.92037 69.0061 6.96044 69.0328 6.90702C69.0328 6.93373 69.0061 6.96044 68.9928 7.0005C68.9661 7.06727 68.926 7.13405 68.8859 7.20082C68.739 7.45455 68.5788 7.72163 68.4853 8.00207C68.4052 8.24245 68.6723 8.53625 68.926 8.44277C69.5937 8.17568 69.9676 7.42784 70.1412 6.77348C70.3148 6.10577 70.3148 5.39798 70.1279 4.74362C70.0611 4.50324 69.794 4.34299 69.5537 4.40976C69.2999 4.47654 69.1664 4.74362 69.2198 4.984L69.1931 4.99736Z" fill="#D6B49B"/>
<path d="M69.2064 4.39656C69.0195 4.54346 68.8192 4.66365 68.6055 4.78383C68.4987 4.83725 68.3918 4.89067 68.285 4.94409C68.2583 4.94409 68.2316 4.9708 68.2049 4.98415C68.2449 4.9708 68.2316 4.98415 68.1915 4.98415C68.1381 4.9975 68.098 5.02421 68.0446 5.03757C67.831 5.11769 67.6173 5.18447 67.3903 5.25124C67.1632 5.31801 66.9496 5.39813 66.7225 5.46491C66.5757 5.50497 66.4822 5.65187 66.4955 5.79876C66.5222 5.95902 66.6424 6.05249 66.8027 6.06585C67.0698 6.09255 67.3235 6.09256 67.5906 6.0525C67.831 6.01244 68.0713 5.95902 68.2984 5.86554C68.7791 5.67858 69.2332 5.4382 69.6338 5.13105C69.8074 4.99751 69.9276 4.75712 69.7807 4.54346C69.6605 4.36985 69.3934 4.24966 69.1931 4.39656H69.2064Z" fill="#D6B49B"/>
<path d="M69.5268 4.31625C68.9927 4.06252 68.4451 3.8622 67.8709 3.74201C67.5771 3.67524 67.27 3.62183 66.9628 3.60847C66.6557 3.58177 66.3752 3.64853 66.0814 3.74201C65.7743 3.83549 65.7476 4.30289 66.0814 4.39637C66.3752 4.4765 66.6156 4.52992 66.9094 4.56999C67.1765 4.59669 67.3902 4.61005 67.6305 4.66346C68.138 4.75695 68.6321 4.89049 69.0995 5.0908C69.3132 5.18428 69.5669 5.15757 69.6871 4.93055C69.7939 4.74359 69.7405 4.43644 69.5268 4.34296V4.31625Z" fill="#D6B49B"/>
<path d="M68.8592 4.9973C68.8592 4.9973 68.8191 5.10413 68.7924 5.1709C68.7657 5.23767 68.8325 5.07742 68.7924 5.19761C68.7924 5.22432 68.7657 5.25102 68.7657 5.26438C68.7123 5.37121 68.6589 5.47805 68.6054 5.58489C68.4986 5.79856 68.3651 5.99887 68.2315 6.19919C68.2048 6.23925 68.1648 6.29266 68.138 6.33273C68.1247 6.35943 68.098 6.38614 68.0713 6.41285C68.0312 6.46627 68.1113 6.37279 68.0713 6.41285C67.9912 6.50633 67.9244 6.59981 67.8443 6.69329C67.684 6.88025 67.5238 7.06721 67.3368 7.24082C67.1899 7.38772 67.1765 7.65481 67.3368 7.80171C67.5104 7.96196 67.7241 7.93525 67.8977 7.80171C68.098 7.64146 68.2983 7.4812 68.4585 7.29424C68.6455 7.08057 68.8058 6.86689 68.966 6.63987C69.2598 6.19918 69.5002 5.71843 69.6872 5.22432C69.7673 5.01065 69.607 4.75692 69.3934 4.7035C69.153 4.65008 68.9527 4.77027 68.8725 4.9973H68.8592Z" fill="#D6B49B"/>
<path d="M67.457 2.94109C66.3352 2.87432 65.2268 3.1147 64.2253 3.62216C63.2504 4.11627 62.2889 4.87746 61.8482 5.89239C61.7681 6.07935 62.0084 6.33308 62.1687 6.13277C62.8364 5.33151 63.5175 4.57031 64.4523 4.06285C65.3737 3.55538 66.4154 3.2883 67.4704 3.32837C67.7241 3.32837 67.7241 2.95444 67.4704 2.92773L67.457 2.94109Z" fill="#D6B49B"/>
<path d="M68.6989 7.72176C67.6974 8.20252 66.5622 8.32271 65.4672 8.12239C64.9597 8.02891 64.479 7.85531 63.9982 7.655C63.7311 7.54816 63.4774 7.41462 63.237 7.26772C63.1168 7.20095 63.01 7.12082 62.8898 7.0407C62.8631 7.02734 62.4625 6.68013 62.6895 6.64007C62.8631 6.6 62.783 6.34628 62.6227 6.38634C62.4091 6.4264 62.2221 6.23944 62.3289 6.03913C62.4358 5.82546 62.1153 5.6385 62.0084 5.85217C61.7413 6.35963 62.1954 6.8938 62.7296 6.64007C62.6895 6.55994 62.6361 6.47982 62.596 6.41304C62.4224 6.50653 62.2488 6.76026 62.2889 6.96058C62.3289 7.22766 62.6361 7.42797 62.8364 7.56152C63.424 7.98885 64.0783 8.29601 64.7995 8.46962C66.1616 8.79012 67.6039 8.65657 68.8325 7.9755C68.9794 7.89537 68.8458 7.66835 68.6989 7.74848V7.72176Z" fill="#D6B49B"/>
<path d="M98.9865 10.887C96.142 16.0684 91.9488 20.8226 86.9276 23.9475C86.5403 24.1878 86.794 24.9223 87.2614 24.722C88.5434 24.2145 89.6518 23.3465 90.6935 22.4651C91.9888 21.3567 93.1907 20.1281 94.3125 18.8595C96.3423 16.5358 98.3321 13.9851 99.4806 11.0873C99.5874 10.8068 99.1334 10.6199 98.9865 10.887Z" fill="#D6B49B"/>
<path d="M86.7139 24.2143C86.7406 24.8419 86.6338 25.4429 86.4602 26.0305C86.2732 26.618 85.9928 27.1789 85.7524 27.7398C85.6322 28.0202 85.926 28.2473 86.1664 28.0603C86.7273 27.6063 87.0611 26.9653 87.2882 26.2842C87.5018 25.6298 87.582 24.8953 87.5285 24.2009C87.5285 23.9873 87.3549 23.8003 87.1279 23.8003C86.9142 23.8003 86.7139 23.9873 86.7273 24.2009L86.7139 24.2143Z" fill="#D6B49B"/>
<path d="M87.3549 24.0676C87.0878 23.44 86.6471 22.9192 86.0996 22.5185C85.8325 22.3182 85.5387 22.1713 85.2316 22.0511C84.9111 21.931 84.4971 21.8642 84.1766 21.971C83.8828 22.0645 83.8294 22.4651 84.0965 22.6254C84.23 22.7189 84.3902 22.7723 84.5371 22.8257C84.5772 22.8391 84.6173 22.8524 84.644 22.8658C84.5772 22.8391 84.6173 22.8658 84.644 22.8658C84.7375 22.9058 84.8309 22.9459 84.9244 22.9859C84.8576 22.9592 84.8843 22.9726 84.9244 22.9859C84.9511 22.9993 84.9778 23.0127 85.0179 23.026C85.0847 23.0527 85.1514 23.0928 85.2048 23.1328C85.325 23.1996 85.4586 23.2797 85.5654 23.3599C85.5921 23.3732 85.6188 23.3999 85.6455 23.4133C85.7524 23.4934 85.5654 23.3465 85.6723 23.4266C85.7257 23.4667 85.7791 23.5068 85.8191 23.5602C85.926 23.6537 86.0195 23.7605 86.1129 23.8673C86.1397 23.894 86.153 23.9207 86.1797 23.9475C86.1397 23.8807 86.2198 23.9875 86.1797 23.9475C86.2198 24.0142 86.2732 24.081 86.3133 24.1478C86.3934 24.268 86.4602 24.4015 86.5136 24.5217C86.6204 24.7487 86.9543 24.8155 87.1546 24.6953C87.395 24.5484 87.4217 24.2947 87.3282 24.0543L87.3549 24.0676Z" fill="#D6B49B"/>
<path d="M86.8475 24.1079C86.3267 24.1213 85.8058 24.2014 85.3117 24.3616C84.7909 24.5219 84.3369 24.789 83.9629 25.1763C83.8695 25.2697 83.8428 25.43 83.9095 25.5502C83.9763 25.657 84.1365 25.7505 84.2567 25.6971C84.3636 25.657 84.4704 25.617 84.5906 25.5769C84.6707 25.5502 84.7375 25.5235 84.8043 25.4834C84.8043 25.4834 84.9244 25.43 84.871 25.4567C85.0847 25.3632 85.3117 25.2831 85.5387 25.2163C85.7524 25.1495 85.9794 25.0828 86.2065 25.0427C86.2599 25.0427 86.3133 25.0294 86.3667 25.016C86.4201 25.016 86.4335 25.016 86.3934 25.016C86.4201 25.016 86.4602 25.016 86.4869 25.016C86.6071 25.0027 86.7273 24.9893 86.8475 24.9893C87.0745 24.9893 87.2882 24.8023 87.2748 24.562C87.2748 24.3349 87.0879 24.1213 86.8475 24.1346V24.1079Z" fill="#D6B49B"/>
<path d="M86.4335 24.4417C86.2999 24.6821 86.1664 24.9225 86.0061 25.1361C85.9661 25.1895 85.9393 25.243 85.8993 25.283C85.8726 25.3097 85.8592 25.3364 85.8325 25.3631C85.8325 25.3631 85.7657 25.4566 85.7925 25.4165C85.8325 25.3765 85.7524 25.4566 85.7524 25.47C85.7257 25.4967 85.7123 25.5234 85.6856 25.5501C85.6456 25.6035 85.5921 25.6569 85.5521 25.7103C85.3785 25.9107 85.1915 26.0976 85.0046 26.2846C84.7909 26.4849 84.6306 26.7253 84.457 26.9523C84.2834 27.1793 84.5772 27.5532 84.8309 27.4464C84.9778 27.393 85.1114 27.3396 85.2449 27.2728C85.3918 27.1927 85.5387 27.0725 85.6456 26.9657C85.8459 26.7787 86.0328 26.565 86.2198 26.3514C86.5937 25.8973 86.9009 25.4032 87.1546 24.869C87.2481 24.6687 87.2214 24.3883 86.9943 24.2814C86.794 24.1746 86.5136 24.228 86.4067 24.4417H86.4335Z" fill="#D6B49B"/>
<path d="M86.714 23.9873C85.8059 23.4398 84.7509 23.106 83.6826 23.106C83.4689 23.106 83.282 23.2929 83.282 23.5066C83.282 23.7336 83.4689 23.8805 83.6826 23.9072C84.5773 24.0007 85.4988 24.2544 86.2867 24.7218C86.487 24.842 86.7541 24.7619 86.8609 24.5749C86.9811 24.3746 86.901 24.1209 86.714 24.0007V23.9873Z" fill="#D6B49B"/>
<path d="M86.1932 26.8852C85.4053 27.5663 84.4304 28.007 83.4155 28.1806C82.3872 28.3675 81.3723 28.2073 80.3573 28.007C80.1437 27.9669 79.9834 28.2607 80.1971 28.3809C81.1987 28.9017 82.4139 28.9017 83.4956 28.6747C84.604 28.4477 85.6323 27.9269 86.4736 27.1657C86.6606 26.9921 86.3801 26.725 86.1932 26.8852Z" fill="#D6B49B"/>
<path d="M84.3769 22.4248C83.0281 22.6518 81.8396 23.4397 80.9983 24.4947C80.571 25.0289 80.2638 25.6031 80.0501 26.2441C79.9566 26.5379 79.7697 26.9786 79.9166 27.2858C80.0101 27.4861 80.3172 27.5929 80.5175 27.5395C80.6911 27.4994 80.611 27.2457 80.4508 27.2858C79.9032 27.406 79.8632 28.1137 80.3706 28.3408C80.5843 28.4342 80.7846 28.1137 80.5576 28.0203C80.3172 27.9134 80.3306 27.6463 80.5576 27.5395C80.5175 27.4594 80.4641 27.3792 80.4241 27.3125C80.2371 27.4059 80.3439 26.8584 80.3439 26.8451C80.384 26.7115 80.424 26.5913 80.4775 26.4578C80.5709 26.1907 80.6911 25.9503 80.8247 25.6966C81.0784 25.2158 81.3588 24.7618 81.7194 24.3612C82.4405 23.5332 83.3887 22.9323 84.457 22.6919C84.6307 22.6518 84.5505 22.4114 84.3903 22.4382L84.3769 22.4248Z" fill="#D6B49B"/>
<path d="M123.078 18.8863C125.842 22.4385 128.914 25.7104 132.279 28.6884C135.577 31.613 139.116 34.404 143.042 36.4205C143.35 36.5808 143.577 36.1668 143.309 35.9665C139.69 33.349 136.018 30.8518 132.666 27.8871C129.381 24.9892 126.323 21.7975 123.558 18.3922C123.278 18.045 122.797 18.5391 123.064 18.8863H123.078Z" fill="#D6B49B"/>
<path d="M126.069 21.9711C130.756 23.5335 135.097 26.2044 138.796 29.4628C140.625 31.0787 142.335 32.8415 143.857 34.7512C145.419 36.6875 146.568 38.8776 148.064 40.8541C148.237 41.0811 148.651 40.9609 148.558 40.6538C147.823 38.3168 146.194 36.1934 144.698 34.2838C143.109 32.2539 141.32 30.3843 139.37 28.6883C135.537 25.3631 131.13 22.759 126.243 21.29C125.815 21.1565 125.642 21.8242 126.056 21.9577L126.069 21.9711Z" fill="#D6B49B"/>
<path d="M125.388 21.6372C125.415 22.7322 126.229 24.0009 126.71 24.9624C127.298 26.151 127.952 27.3128 128.686 28.4212C130.142 30.6113 131.972 32.3874 134.095 33.9232C136.325 35.539 138.662 37.0748 141.079 38.4236C142.228 39.0646 143.403 39.6522 144.618 40.1596C145.673 40.6003 147.182 41.3615 148.344 41.228C148.624 41.2013 148.745 40.854 148.491 40.6938C147.983 40.3466 147.342 40.2531 146.755 40.0661C146.141 39.8658 145.54 39.6255 144.939 39.3717C143.763 38.8643 142.628 38.2767 141.533 37.649C139.263 36.3536 137.073 34.8847 134.936 33.3756C132.76 31.8399 130.89 30.0638 129.381 27.8603C128.686 26.8454 128.059 25.7637 127.498 24.6686C127.217 24.1211 126.937 23.5602 126.657 23.0127C126.403 22.4919 126.203 21.8909 125.789 21.477C125.642 21.3434 125.388 21.4369 125.388 21.6372Z" fill="#D6B49B"/>
<path d="M132.599 4.40982C130.289 7.04062 127.538 9.33757 124.467 11.0336C122.944 11.8749 121.355 12.5827 119.713 13.1569C118.871 13.4373 118.03 13.6911 117.162 13.9047C116.307 14.1184 115.399 14.1852 114.571 14.479C114.184 14.6125 114.224 15.2268 114.678 15.2268C115.533 15.2268 116.427 14.9464 117.255 14.7327C118.15 14.4923 119.045 14.2119 119.913 13.8914C121.555 13.2904 123.158 12.5426 124.68 11.6612C127.832 9.84503 130.623 7.54808 132.92 4.73032C133.094 4.51665 132.8 4.19615 132.599 4.40982Z" fill="#D6B49B"/>
<path d="M116.093 15.1602C117.362 15.3472 118.524 15.414 119.819 15.2404C120.981 15.0935 122.116 14.813 123.238 14.4658C125.615 13.7313 128.032 12.7565 130.102 11.381C132.132 10.0455 133.721 8.20264 135.284 6.35975C136.152 5.33147 137.033 4.30319 137.901 3.26155C138.649 2.38017 139.717 1.40531 140.131 0.32361C140.198 0.150004 139.971 0.0164632 139.837 0.096589C138.849 0.670824 138.075 1.846 137.34 2.70067C136.566 3.59541 135.791 4.5035 135.016 5.39824C133.454 7.21442 131.918 9.11074 129.929 10.4862C126.042 13.1838 120.848 14.6661 116.147 14.7863C115.947 14.7863 115.893 15.1068 116.093 15.1469V15.1602Z" fill="#D6B49B"/>
<path d="M139.851 0.00309778C134.576 0.871127 129.221 2.15314 124.493 4.75723C122.397 5.91905 120.407 7.33461 118.711 9.04396C116.988 10.78 115.599 12.703 113.676 14.2388C113.476 14.399 113.69 14.7329 113.917 14.6528C116.027 13.9583 117.376 11.8751 118.804 10.2993C120.5 8.42966 122.517 6.90727 124.694 5.66532C129.421 2.96775 134.709 1.69909 139.944 0.390364C140.198 0.323592 140.091 -0.0369651 139.837 0.00309778H139.851Z" fill="#D6B49B"/>
<path d="M99.8279 11.1673C104.342 13.2773 108.415 16.1885 111.419 20.2215C114.077 23.8005 115.76 28.6615 119.859 30.905C120.046 31.0118 120.26 30.7581 120.086 30.5978C116.427 27.3527 114.624 22.8123 111.646 19.033C108.668 15.2671 104.635 12.1555 100.055 10.6064C99.7344 10.4996 99.5208 11.0071 99.8279 11.154V11.1673Z" fill="#D6B49B"/>
<path d="M104.315 13.3575C109.456 14.7864 113.663 18.2852 117.002 22.3316C118.858 24.5751 120.474 27.0056 122.009 29.4628C122.744 30.638 123.438 31.8399 124.186 33.0017C124.841 34.03 125.548 34.9648 126.603 35.5924C126.897 35.766 127.204 35.3654 126.964 35.125C124.974 33.1219 123.705 30.4777 122.21 28.1007C120.661 25.6702 119.031 23.2931 117.148 21.103C113.797 17.2035 109.537 13.9718 104.502 12.6631C104.061 12.5429 103.874 13.224 104.315 13.3441V13.3575Z" fill="#D6B49B"/>
<path d="M126.75 35.1649C121.048 34.1366 115.693 31.6127 111.5 27.5797C109.51 25.67 107.814 23.4932 106.465 21.0895C105.036 18.5521 103.527 15.3872 103.62 12.4092C103.634 11.8884 102.833 11.8884 102.806 12.4092C102.672 14.8263 103.567 17.2301 104.555 19.3935C105.49 21.4767 106.692 23.4532 108.094 25.256C110.979 28.9551 114.771 31.8931 119.058 33.7493C121.475 34.8043 124.039 35.4854 126.657 35.7792C127.017 35.8193 127.097 35.2183 126.737 35.1515L126.75 35.1649Z" fill="#D6B49B"/>
<path d="M84.5907 11.2072C82.3872 12.0752 81.1987 14.4389 80.1303 16.402C78.7548 18.9126 77.593 21.5434 76.1507 24.014C73.4799 28.5945 69.3401 33.0014 63.6244 32.8678C63.0502 32.8678 63.0635 33.7092 63.6244 33.7492C68.9261 34.1232 73.2128 30.3305 75.9104 26.1506C77.4328 23.8003 78.6079 21.2363 79.8365 18.7256C80.4642 17.4303 81.1185 16.1483 81.8397 14.9063C82.5608 13.6777 83.3888 12.3957 84.7643 11.8081C85.1248 11.6479 84.9779 11.0469 84.5907 11.1938V11.2072Z" fill="#D6B49B"/>
<path d="M82.4407 11.8752C78.0738 14.2923 73.6669 16.8964 70.0479 20.3685C68.2584 22.0913 66.7093 24.081 65.5208 26.2711C64.9065 27.4196 64.3857 28.6082 63.9717 29.8501C63.571 31.0253 63.117 32.3874 63.1036 33.6427C63.1036 34.1235 63.7714 34.1903 63.9183 33.7496C64.3189 32.561 64.4791 31.2924 64.8798 30.1038C65.3071 28.8619 65.8413 27.6467 66.4689 26.4982C67.6575 24.3481 69.2199 22.4385 70.9693 20.7291C74.4281 17.3371 78.6213 14.8933 82.7078 12.356C83.0149 12.169 82.7478 11.6883 82.4273 11.8619L82.4407 11.8752Z" fill="#D6B49B"/>
<path d="M81.9731 12.4892C79.3423 15.0265 76.7783 17.6173 74.4413 20.4217C73.3462 21.7437 72.2913 23.0792 71.263 24.4546C70.1546 25.9503 68.9927 27.4594 68.1514 29.142C68.0179 29.4225 68.3784 29.7563 68.6055 29.4892C69.7139 28.1939 70.6487 26.765 71.6636 25.3895C72.7854 23.8671 73.9338 22.3714 75.1224 20.9024C77.3926 18.1114 79.7029 15.3203 82.2135 12.7429C82.3738 12.5693 82.12 12.329 81.9598 12.4892H81.9731Z" fill="#D6B49B"/>
<path d="M77.0855 13.1302C71.3298 14.1051 65.721 12.2488 60.1522 11.1137C57.5214 10.5795 54.8773 10.2457 52.1797 10.3258C50.8843 10.3659 49.589 10.4994 48.3069 10.7264C47.065 10.9401 45.5292 11.1404 44.4876 11.8749C44.2606 12.0351 44.3274 12.3957 44.6345 12.4091C45.8898 12.4224 47.1852 11.9016 48.4138 11.6879C49.816 11.4475 51.2315 11.3007 52.6471 11.2606C55.5183 11.1805 58.3494 11.6212 61.1538 12.2221C66.4154 13.3439 71.8239 14.9197 77.2057 13.6109C77.5128 13.5308 77.3793 13.0901 77.0721 13.1436L77.0855 13.1302Z" fill="#D6B49B"/>
<path d="M75.029 13.6781C70.3016 15.8816 65.0934 17.4307 59.8184 17.1903C57.1743 17.0701 54.6236 16.4425 52.1664 15.4676C49.6692 14.4794 47.3989 13.0104 44.9284 11.9821C44.4343 11.7685 44.1805 12.543 44.5812 12.8101C45.743 13.598 47.0651 14.2123 48.3204 14.8533C49.5356 15.4676 50.7776 16.0285 52.0462 16.5226C54.5835 17.4975 57.2544 18.0851 59.9787 18.1652C65.3471 18.3121 70.6354 16.7096 75.2694 14.0788C75.5231 13.9319 75.2961 13.5713 75.0423 13.6915L75.029 13.6781Z" fill="#D6B49B"/>
<path d="M75.6165 13.7847C71.0627 15.0667 66.4555 15.5207 61.7414 15.08C59.3643 14.853 56.9873 14.439 54.6636 13.8915C52.3934 13.344 50.1766 12.6228 47.9063 12.062C47.5858 11.9818 47.3321 12.4759 47.666 12.6228C51.966 14.5592 56.8938 15.5474 61.5811 15.9347C66.3086 16.322 71.2764 16.0148 75.7501 14.3188C76.0706 14.1986 75.9504 13.6912 75.6032 13.798L75.6165 13.7847Z" fill="#D6B49B"/>
<path d="M38.9457 21.3567C32.4155 21.37 25.9787 21.0762 19.8224 18.6724C14.7077 16.6827 10.0604 13.4776 6.33453 9.44462C4.22455 7.16104 2.58197 4.597 0.926038 1.9662C0.68566 1.57893 0.151487 1.91279 0.325093 2.31342C1.4335 4.85074 3.1295 7.14768 4.94568 9.2176C6.77522 11.3142 8.84514 13.1972 11.0887 14.8398C15.7627 18.2585 21.1845 20.5287 26.9135 21.4101C30.8931 22.0244 34.9395 22.0911 38.9457 21.8374C39.2529 21.8241 39.2662 21.3433 38.9457 21.3433V21.3567Z" fill="#D6B49B"/>
<path d="M37.1829 20.8759C32.3486 18.579 28.0752 15.3205 23.6015 12.4093C19.021 9.43127 14.1333 6.98743 9.09876 4.8641C7.73662 4.28986 6.37448 3.72898 4.99899 3.19481C3.54337 2.62057 2.04769 1.92615 0.525297 1.57894C0.0846049 1.48546 -0.222544 2.09975 0.204794 2.32678C1.36662 2.92772 2.66199 3.32835 3.87723 3.79575C5.17259 4.28986 6.45461 4.79732 7.73662 5.31814C10.3541 6.38648 12.9314 7.54831 15.4554 8.81697C20.2897 11.2341 24.6832 14.2655 29.2504 17.1501C31.7343 18.7125 34.285 20.1815 36.9959 21.3166C37.2496 21.4234 37.4232 20.9961 37.1829 20.8759Z" fill="#D6B49B"/>
</svg>
