<svg width="116" height="97" viewBox="0 0 116 97" fill="none" xmlns="http://www.w3.org/2000/svg">
<path d="M89.0772 30.4877C90.6512 29.0377 92.5522 28.3227 94.1622 26.8637C96.8482 24.4277 96.5163 19.8217 96.7213 16.5407C96.7333 16.3387 97.0212 16.3387 97.0342 16.5407C97.2652 19.9987 97.6573 24.8837 94.9153 27.6167C92.9163 29.6117 90.0842 30.6267 89.0802 33.5927C88.2002 36.1847 88.4793 38.8767 87.4623 41.4957C86.7943 43.2147 85.6133 44.7907 84.6143 46.3267C82.8963 48.9687 82.0543 51.7107 81.3123 54.7337C80.4833 58.1137 78.8223 60.5147 75.7073 62.1437C75.5323 62.2347 75.3512 62.0127 75.4942 61.8677C78.5072 58.8157 79.9253 56.3597 80.9203 52.1967C82.0083 47.6357 85.2922 44.2477 86.7192 39.8267C87.5582 37.2287 86.7862 32.5957 89.0772 30.4877Z" fill="white"/>
<path d="M106.685 58.4443C106.848 58.4863 106.779 58.7273 106.617 58.6943C104.486 58.2583 102.388 57.6903 100.267 57.2143C100.141 57.1853 100.168 56.9853 100.297 56.9883C102.524 57.0593 104.553 57.8923 106.685 58.4443Z" fill="white"/>
<path d="M78.7522 85.1247C78.8942 84.7757 79.4661 84.9207 79.3261 85.2827C78.2471 88.0797 74.9511 88.9247 72.3361 89.7027C69.3281 90.5987 66.2771 91.4827 63.2011 92.1117C59.9181 92.7837 52.3601 92.4817 56.6591 87.5037C56.7931 87.3487 57.0572 87.5127 56.9972 87.7007C55.1822 93.4167 63.2632 90.8607 66.2772 90.0947C69.7022 89.2247 77.2862 88.7057 78.7522 85.1247Z" fill="white"/>
<path d="M64.5241 85.0565C62.0141 82.0905 62.5012 77.6315 63.5012 74.1685C63.5552 73.9835 63.8362 74.0605 63.7882 74.2465C62.8292 78.0825 63.0921 81.3095 64.7401 84.8895C64.8011 85.0215 64.6341 85.1845 64.5241 85.0565Z" fill="white"/>
<path d="M2.79519 57.7045C4.90719 57.5185 3.59017 55.0765 5.86617 54.7255C7.18817 54.5205 8.49316 54.6665 9.76116 55.0005C6.74516 52.6455 5.20019 48.6205 4.73919 44.8955C4.42419 42.3405 5.70119 40.0185 7.01019 37.9525C7.93018 36.4985 9.22819 33.8205 10.8382 32.9385C12.7182 31.9105 13.1522 32.7495 14.5912 30.6895C14.9922 30.1155 15.9742 28.3425 16.8592 28.5265C19.7212 29.1225 19.6742 25.9985 21.9392 26.6475C21.7812 25.5675 21.8372 24.5035 22.2032 23.5185C22.2952 23.2695 22.5532 23.1445 22.7972 23.2765C24.0502 23.9515 24.1692 20.7955 24.4532 19.8665C24.5242 19.6335 24.7612 19.5625 24.9702 19.6565C25.1472 19.7365 25.2432 19.7755 25.3102 19.7765C25.5632 18.0095 26.2142 16.2755 27.1732 14.7235C28.0982 13.2235 29.9772 9.63853 31.8882 9.38253C32.6852 9.27553 33.6302 9.43354 34.4402 9.43254C33.8102 9.43354 37.2072 8.29653 37.0792 8.32853C38.6142 7.94753 39.4442 10.9355 40.7932 9.57054C43.0452 7.28954 46.7622 10.8605 48.3722 11.9335C48.6292 12.1045 48.4042 12.4995 48.1302 12.3485C45.5562 10.9335 43.2102 9.00954 40.6222 11.3535C40.3982 11.5555 40.1432 11.5675 39.8782 11.4495C38.2322 10.7175 37.1942 9.72154 35.1992 10.4595C33.6432 11.0355 32.0962 9.12954 30.6392 10.8835C26.6512 15.6845 24.4352 20.4305 27.1442 26.7135C27.2332 26.9185 26.9702 27.0825 26.8412 26.8905C25.6182 25.0805 25.1282 23.0365 25.2012 20.9905C24.4252 21.8735 24.4132 23.1225 24.1952 24.4625C24.1552 24.7115 23.8152 24.8255 23.6172 24.6975C21.2252 23.1635 23.7602 29.3225 24.1452 30.0395C24.7942 31.2485 25.6892 32.2815 26.5342 33.3475C27.4732 30.1685 29.7402 27.1375 31.7172 24.9295C31.7562 24.8855 31.7992 24.8735 31.8422 24.8655C32.3222 20.6525 39.3842 16.4995 42.4032 15.5475C43.1162 15.3225 44.3822 15.0555 45.0762 15.3845C46.1112 15.8765 45.8412 15.7035 46.6862 16.5135C48.6732 18.4185 50.0412 16.9405 51.9542 16.7825C52.7322 16.7185 53.4182 16.7535 54.0602 16.8385C52.0132 13.6485 49.1382 8.87454 49.7072 5.30754C49.8952 4.12654 50.3392 3.42454 51.4822 2.95854C53.4772 2.14554 55.2922 0.452542 57.3612 0.0185423C58.7622 -0.274458 61.0262 3.01454 61.9522 2.15654C62.4412 1.70354 64.0412 0.639542 64.5982 0.561542C67.1392 0.205542 68.0622 3.67654 68.2562 6.04154C69.1282 4.92054 70.1842 3.94654 71.4012 3.18854C74.5132 1.24954 75.3222 6.31854 77.4852 4.84254C79.9442 3.16654 81.7562 7.15355 82.4352 8.70555C83.3172 10.7215 83.3392 10.8295 85.2052 11.7695C86.7152 12.5305 86.6982 14.1115 87.3502 15.4455C88.4042 13.8635 89.6172 12.4435 91.3302 11.7585C91.6152 11.6445 91.9042 11.8385 92.0612 12.0555C92.5832 12.7785 92.9692 14.1065 93.9942 13.1635C94.1462 13.0245 94.3932 12.9215 94.6012 13.0035C99.1902 14.8225 99.6942 18.3085 99.9632 22.9605C100.335 29.3925 95.6642 34.8595 92.2412 39.7935C91.6132 40.6995 91.0022 41.6105 90.4232 42.5345C92.5622 40.5945 95.0732 39.2895 97.5842 37.8185C97.8562 37.6595 98.1472 37.7745 98.3192 38.0115C99.5492 38.7025 100.78 39.3935 102.01 40.0845C102.343 40.1015 102.674 40.3645 102.652 40.7275C102.618 41.2945 102.598 41.5765 102.54 41.8315C104.905 41.4715 107.2 41.7025 109.247 42.5275C109.21 42.4825 109.189 42.4225 109.215 42.3645C110.698 38.9865 108.392 37.6995 106.355 35.8225C105.713 35.8935 105.083 36.0345 104.459 36.2215C103.561 36.4895 102.7 36.9345 101.765 37.0305C101.533 37.0545 101.504 36.7415 101.658 36.6325C102.761 35.8445 104.35 35.3365 105.821 35.3035C105.644 35.1235 105.471 34.9375 105.308 34.7415C104.755 34.0765 104.679 33.0825 104.528 32.2705C103.969 29.2325 100.626 31.1895 98.8342 31.1515C98.6502 31.1485 98.5842 30.9425 98.6932 30.8135C99.7802 29.5215 102.316 29.0805 103.854 29.6585C105.498 30.2755 105.638 31.8025 105.859 33.2975C105.971 34.0545 106.455 34.7485 107.059 35.4065C107.101 35.4145 107.147 35.4175 107.188 35.4265C107.303 35.4515 107.327 35.5605 107.294 35.6505C108.191 36.5705 109.273 37.4275 109.879 38.2895C110.869 39.7035 110.443 41.3035 109.443 42.5405C109.42 42.5675 109.395 42.5745 109.371 42.5805C111.514 43.4765 113.382 45.0235 114.751 47.2515C116.007 49.2915 115.529 51.9615 114.995 54.1125C114.114 57.6545 113.922 61.6015 111.85 64.6785C110.269 67.0265 107.133 68.3415 105.085 70.1945C103.107 71.9845 103.347 76.2555 100.25 77.1075C99.5522 77.2995 98.8882 77.2285 98.2522 77.0075C95.5812 78.2285 92.5412 78.4235 89.9742 79.8235C87.7622 81.0305 87.0082 81.3185 84.5282 80.4985C80.9442 79.3115 78.1532 76.5485 74.4642 75.3725C73.0702 74.9275 71.8262 74.4785 70.5232 73.8285C69.1112 73.1225 69.2402 71.9505 67.2102 71.6415C66.7232 71.5675 66.9322 70.8335 67.4122 70.9045C69.2802 71.1785 69.4192 72.0415 70.9402 73.1155C73.5032 74.9265 77.2262 75.1555 80.0092 76.7865C81.2472 77.5125 82.4362 78.3105 83.6842 79.0235C88.8722 81.9875 87.4162 78.9015 90.3662 78.2735C92.6672 77.7855 94.9722 77.1945 97.2412 76.5305C96.2482 75.9565 95.3262 75.1465 94.4502 74.5935C89.9912 71.7755 85.2862 69.2935 80.1532 67.9995C79.6412 67.8715 79.8592 67.0885 80.3702 67.2115C85.1382 68.3625 89.1852 70.5115 93.4062 72.9505C96.7432 74.8805 100.598 77.5285 102.902 71.5685C103.411 70.2535 104.267 69.4535 105.302 68.5215C106.798 67.1745 108.648 66.2505 110.183 64.9365C111.678 63.6585 112.207 61.8215 112.618 59.9315C109.331 57.2605 106.043 56.9735 101.963 56.2885C101.797 56.2615 101.792 55.9745 101.963 55.9505C105.433 55.4635 110.325 56.5975 112.731 59.4045C112.951 58.3525 113.159 57.2985 113.498 56.3285C114.864 52.4365 115.466 48.8965 112.274 45.4835C109.657 42.6835 105.15 42.5185 101.692 43.3045C101.098 43.4395 100.734 42.8665 100.962 42.3525C101.41 41.3335 98.6572 40.2325 98.1172 39.7375C96.1512 37.9355 91.3302 42.2255 89.9312 43.5535C89.8812 43.6015 89.8262 43.6125 89.7722 43.6045C88.4102 45.9175 87.2852 48.3405 86.6542 51.0265C86.0902 53.4235 85.8812 56.1825 84.2972 58.2005C81.4332 61.8465 76.5832 65.3885 71.7482 65.1495C70.8142 66.3625 69.6052 67.1695 68.0432 67.2535C68.0152 67.2555 67.9972 67.2415 67.9792 67.2315C67.8322 67.9565 67.6772 68.6725 67.5202 69.3735C67.4592 69.6475 67.0442 69.5315 67.1002 69.2575C68.3732 63.0765 68.8462 57.8415 65.9562 52.0435C65.8672 51.8635 66.1032 51.7345 66.2202 51.8885C69.5132 56.2525 69.0392 61.8435 68.0282 66.9725C72.9752 65.0365 73.3582 56.4685 73.3552 52.2275C73.3542 50.8295 73.1082 43.7805 70.8802 45.9355C70.3942 46.4055 70.0042 46.8155 69.5702 47.3995C69.4042 47.6245 69.1432 47.7865 68.8502 47.6925C68.3632 47.5365 66.2262 46.6095 66.2532 46.6055C63.6672 46.9555 61.4732 47.5905 60.3682 49.8215C60.4142 49.9405 60.4762 50.0505 60.5162 50.1735C60.5992 50.4235 60.2872 50.6365 60.0782 50.5095C60.0602 50.5625 60.0342 50.6025 60.0172 50.6575C59.9642 50.8215 59.8972 50.9495 59.8282 51.0735C61.4142 52.4215 62.7622 55.2705 63.4942 56.6425C64.5862 58.6855 66.1262 61.6195 65.2642 63.9815C65.1942 64.1725 64.8992 64.0985 64.9542 63.8955C65.6342 61.4095 63.6372 58.5045 62.3642 56.5235C61.5792 55.3015 60.6992 54.1285 59.7962 52.9925C59.5262 52.6535 59.2002 52.3465 58.9042 52.0215C58.8222 52.0855 58.7442 52.1445 58.6542 52.2165C58.3522 52.4605 58.0032 52.6265 57.6072 52.7165C54.4612 54.1425 56.1652 57.6225 57.7252 59.3475C57.8242 59.4545 57.8162 59.5785 57.7582 59.6695C61.4092 61.0295 64.5912 63.5815 66.5512 66.9845C66.7202 67.2785 66.3022 67.4985 66.1092 67.2425C64.2102 64.7305 61.6412 62.6595 58.7462 61.3775C58.6902 61.4805 58.5762 61.5495 58.4382 61.5145C57.6182 61.3045 56.8292 60.9235 56.0752 60.4545C56.0052 60.4365 55.9352 60.4095 55.8642 60.3925C53.7632 59.8865 46.6912 56.8385 45.3692 58.7805C44.4172 60.1765 43.8252 60.8495 42.1732 61.4195C41.6082 61.6145 39.9492 61.7305 39.3912 61.7835C37.3002 61.7495 35.4002 62.3435 33.6832 63.5475C34.5242 63.9265 35.3432 64.3385 36.2092 64.6675C37.0882 65.0005 38.0252 65.2145 38.8672 65.6385C39.1202 65.7665 39.0102 66.2155 38.7192 66.1865C36.9532 66.0125 34.6422 65.1365 33.2552 63.9715C33.0202 65.6595 33.2672 67.1075 33.9812 68.3215C34.0732 68.3805 34.1232 68.4785 34.1292 68.5775C34.4332 69.0375 34.8032 69.4635 35.2502 69.8505C35.3382 69.9465 35.3342 70.0745 35.2842 70.1765C38.7332 71.6345 42.2282 71.5715 46.0052 71.1655C47.0502 71.0525 48.1372 70.9615 49.2392 70.8685C49.3512 70.7295 49.4792 70.6055 49.5832 70.4575C49.6932 70.2985 49.9482 70.4405 49.8462 70.6125C49.8012 70.6905 49.7382 70.7535 49.6882 70.8285C53.5142 70.5005 57.5222 70.0965 60.8352 68.6195C61.1102 68.4975 61.3522 68.8995 61.0742 69.0285C57.1992 70.8315 52.8812 71.5685 48.6152 72.1015C46.6162 74.0145 43.6112 74.9805 41.1232 75.9525C39.6062 76.5445 38.1112 77.0955 36.4522 76.8385C32.8132 76.2745 30.2222 76.8075 26.8462 77.9895C22.4442 79.5325 16.9112 78.4585 12.0642 76.1925C12.2632 76.4045 12.0692 76.7875 11.7532 76.7125C9.39917 76.1515 12.1752 85.4795 12.5112 86.4565C14.8422 93.2295 21.3392 93.9415 27.3292 92.6555C32.4972 91.5455 39.5202 91.1175 45.4082 89.1475C44.8922 89.0745 44.3672 88.9575 43.8382 88.8105C41.8992 88.2705 38.9482 86.9935 37.6472 85.2245C34.8712 85.1935 32.2402 82.6655 29.6162 84.9515C25.9252 88.1675 20.7812 88.6575 16.2342 86.4605C14.9572 85.8425 12.9812 84.7195 12.9912 83.0215C12.9952 82.4945 12.9662 81.0685 13.7952 81.1005C13.9792 81.1065 14.0552 81.3525 13.8902 81.4485C12.5672 82.2205 15.1562 84.8825 15.9012 85.3375C16.8922 85.9425 18.1282 86.1925 19.2462 86.4435C22.2392 87.1145 25.6532 87.0675 28.0662 84.9505C29.2112 83.9455 30.3492 82.2835 32.1232 82.3775C34.7262 82.5165 38.0562 85.1455 39.8122 81.5865C42.3042 76.5365 44.9962 78.1085 49.7162 78.4855C54.9962 78.9085 57.3512 71.4745 61.8782 69.8485C62.1002 69.7695 62.2442 70.1195 62.0372 70.2245C57.5372 72.5095 54.4522 80.8695 48.3712 79.6895C47.3032 79.4825 46.3172 79.3615 45.4212 79.4075C46.8392 81.9565 51.4242 85.4165 54.0012 83.6125C55.1452 82.1285 55.9882 80.3475 56.4122 78.1805C56.4832 77.8155 56.8912 77.6485 57.2212 77.7215C62.0082 78.7795 62.2442 70.4435 64.4922 67.9625C64.6392 67.8005 64.8682 68.0065 64.7802 68.1855C63.2542 71.2735 63.2262 74.9545 61.1332 77.7775C60.5642 78.5445 59.7882 78.8945 58.9042 79.1535C57.4062 79.5965 57.4322 79.7945 56.8192 81.0715C57.0122 80.8325 57.2012 80.6075 57.3822 80.4005C57.5602 80.1965 57.8122 80.4555 57.7242 80.6635C55.9132 84.9435 52.0632 88.5305 53.1142 93.6215C53.6822 96.3725 56.5142 94.8995 58.0212 94.8055C60.4462 94.6545 62.8662 94.8895 65.2932 94.8765C66.8222 94.8675 68.6222 94.4245 70.2072 94.3415C74.1212 94.1365 75.5452 92.4905 77.5902 89.5065C77.8232 89.2045 78.0592 88.9065 78.3012 88.6135C80.7952 85.5005 80.7982 81.6575 77.3782 79.2485C76.4192 78.5725 75.7632 78.0155 75.2502 76.9625C75.1822 76.8245 75.3702 76.6495 75.4772 76.7875C77.9182 79.9085 85.4212 82.2315 81.0232 87.6285C79.4482 89.5595 77.7062 92.5165 75.6592 93.9505C73.1362 95.7165 69.7872 95.1965 66.8832 95.7115C63.2982 96.3485 59.6652 95.4465 56.0442 96.1265C54.7232 96.3745 53.4012 96.3275 52.6482 95.0435C51.0632 92.3355 52.2122 88.5565 53.9712 85.3275C48.0012 91.7945 38.4112 91.0065 29.9262 93.0075C22.5892 94.7365 14.7882 95.1005 11.4902 86.7405C11.0772 85.6955 8.02518 74.9185 11.4232 75.8805C8.09418 74.2305 5.13117 72.0395 3.15917 69.7635C1.35817 67.6925 -2.74681 58.1885 2.79519 57.7045ZM53.3852 84.3595C50.4552 85.4465 45.9262 82.2145 44.7402 79.4855C43.2742 79.7285 42.0822 80.5465 41.2052 82.4075C40.8372 83.1915 40.2662 84.4665 39.3962 84.8715C39.1212 84.9995 38.8482 85.0785 38.5762 85.1375C39.8232 85.9275 40.9722 86.9095 42.3292 87.5635C43.6652 88.2085 45.2512 88.7105 46.7672 88.6675C49.3522 87.6585 51.6482 86.2865 53.3852 84.3595ZM49.0042 18.7165C47.6702 18.9375 46.7302 18.2085 45.9052 17.2975C42.1632 13.1575 31.5042 21.7025 32.8732 26.8115C34.0852 25.3055 35.7242 24.2705 37.5532 24.5055C37.5862 24.5095 40.1772 22.0525 40.9012 21.7915C41.5142 21.5705 42.1912 21.7495 42.7972 21.8565C47.4052 22.6705 46.2822 20.7115 49.1492 19.8925C51.4332 19.2415 53.2432 20.6765 55.6462 20.3665C56.0342 20.3165 57.1442 20.6485 58.1932 21.0125C55.6692 17.8905 53.1342 18.0305 49.0042 18.7165ZM67.3092 45.2445C67.5102 45.2445 68.8962 46.1885 68.8312 46.2745C69.0862 45.9325 69.3362 45.1495 69.8282 45.0045C70.6262 44.7705 71.0462 43.4785 72.0512 44.2785C74.6672 46.3635 74.4552 49.1755 74.6232 52.2345C74.7382 54.3495 74.5602 58.0365 73.6172 61.2295C76.2282 57.9895 78.0952 55.3245 79.3172 51.1045C80.4892 47.0575 80.8902 42.7325 80.8182 38.5335C80.8142 38.3065 81.1642 38.3065 81.1702 38.5335C81.3472 45.2825 80.6542 58.7265 73.5832 62.2725C73.4642 62.3315 73.3622 62.3085 73.2762 62.2585C72.9632 63.1195 72.5832 63.9225 72.1272 64.6225C76.0802 64.0835 79.3912 61.9065 82.1942 59.1315C85.2072 56.1535 85.0812 51.6935 86.2802 47.9025C88.3052 41.4935 93.6922 36.6225 96.9282 30.8555C99.2262 26.7575 99.1502 22.5725 98.1532 18.1295C97.9482 17.2145 96.4152 12.9015 94.4862 14.3925C94.0482 14.7305 93.7842 14.9735 93.2122 14.9735C92.3622 14.9735 91.5642 13.5515 91.1432 12.9845C91.2352 13.1075 86.0822 19.4655 85.1602 20.2185C84.8672 20.4585 84.3262 20.1345 84.5922 19.7795C85.4052 18.6885 86.1272 17.3775 86.9192 16.1165C86.5162 15.7215 86.3332 15.2105 85.9312 14.5995C84.6322 12.6245 84.0102 13.5955 82.9982 12.5825C81.3552 10.9395 80.4342 3.45053 76.7422 6.91253C76.4712 7.16653 76.0772 7.10054 75.8752 6.80154C70.5892 -1.07646 67.1012 11.2595 65.8102 14.8885C65.7292 15.1165 65.3892 15.0845 65.3822 14.8305C65.3082 11.9845 66.1482 9.12454 67.7232 6.78254C67.5022 5.18654 67.1802 3.67354 66.4192 2.21554C65.2422 -0.0444591 64.9402 2.14754 64.1792 2.42454C62.6882 2.96754 60.9512 4.27454 59.3822 2.76854C57.3652 0.833542 56.1572 2.11754 54.4512 3.18754C52.8542 4.18654 50.6892 3.28854 50.5782 6.23854C50.4352 10.0455 53.5502 13.4115 54.7732 16.9585C56.0902 17.2725 57.1102 17.9655 57.9512 19.0055C58.0022 17.4495 58.7802 16.0845 60.4712 15.4855C61.3882 15.1605 62.7292 14.6685 63.7472 14.9485C65.0192 15.2975 67.6922 17.7935 68.5302 15.6725C68.6562 15.3515 68.9582 15.2165 69.2772 15.3685C71.0132 16.1975 72.0492 17.2885 73.1952 18.7915C74.5612 20.5835 75.2592 19.3545 76.8262 18.7205C79.0582 17.8185 81.0472 22.3855 81.8402 23.6945C81.8552 23.6195 81.8702 23.5495 81.8862 23.4685C81.9472 23.1245 82.3222 23.0025 82.6182 23.0515C86.2762 23.6545 88.5102 27.1015 88.3362 30.7125C88.3222 30.9885 87.8922 31.0765 87.8342 30.7805C87.4592 28.8375 86.8482 27.1915 85.5602 25.6335C82.8252 22.3265 82.8022 24.9615 82.5942 26.4865C82.5442 26.8555 82.1082 26.9955 81.8002 26.9375C80.1892 26.6325 78.7482 25.8445 78.5622 27.9945C78.5252 28.4325 78.4402 29.5705 78.1562 29.9555C77.4572 30.9015 76.7322 31.0865 75.7272 30.9705C78.9652 36.0525 79.0742 44.0165 77.5162 49.5795C77.4582 49.7875 77.1222 49.7515 77.1342 49.5275C77.4432 43.1365 78.4822 36.6795 75.0972 30.8715C73.4292 30.5345 69.8472 28.2745 69.6182 32.6785C69.5162 34.6145 70.9002 36.7465 71.7372 38.4025C72.6212 40.1515 73.8272 42.1265 73.6442 44.1525C73.6232 44.3865 73.2432 44.4805 73.2012 44.2115C72.8282 41.8305 71.1952 39.4455 70.0282 37.0285C68.8962 36.5075 67.9442 35.7655 66.9092 35.0765C62.8562 32.3795 63.4092 35.8555 62.1522 37.1125C60.8472 38.4175 59.2292 38.1015 57.7992 37.3245C57.4772 37.1495 57.1292 37.0815 56.7692 37.0815C57.1612 38.7245 57.4532 40.3665 57.9872 41.9795C58.6762 44.0625 59.8522 45.6245 61.0862 47.3515C62.7742 45.9005 65.1082 45.2445 67.3092 45.2445ZM41.8852 60.3795C44.3562 59.9475 43.6692 58.5685 44.9672 57.4125C45.3042 57.1125 45.6482 56.8995 45.9952 56.7335C43.9572 55.3385 42.2922 52.9185 41.3072 51.0515C41.2502 50.9415 41.4012 50.8085 41.4882 50.9125C42.4842 52.0995 43.3582 53.3485 44.4842 54.4225C45.3792 55.2745 46.4252 55.8055 47.4632 56.3675C49.3512 56.2905 51.3292 57.4855 53.2572 58.2935C53.0112 58.0795 52.7692 57.8675 52.5332 57.6615C50.5162 55.9005 48.7172 53.6305 47.3852 51.3145C47.3012 51.1685 47.5142 50.9905 47.6242 51.1295C49.1942 53.0925 50.7522 54.9575 52.6922 56.5675C53.8712 57.5455 55.2642 58.3615 56.5552 59.2675C56.6852 59.3045 56.8172 59.3335 56.9452 59.3755C55.7052 58.2205 54.3312 56.6035 55.1102 54.8195C56.0002 52.7815 57.5512 50.8915 59.1582 49.2215C58.4952 48.0885 57.9832 46.8425 57.4122 45.6805C56.5902 44.0115 55.9062 42.3305 55.4252 40.5275C55.3722 40.3275 55.6742 40.2455 55.7352 40.4425C56.3332 42.3935 57.1672 44.2385 58.1722 46.0135C58.6692 46.8935 59.2662 47.7235 59.7732 48.5985C60.0982 48.2725 60.4222 47.9535 60.7412 47.6455C58.0092 45.2165 56.5882 40.6595 56.4282 37.1065C53.6512 37.4615 50.1222 41.9635 49.0562 43.6025C47.0732 46.6495 51.4552 51.6745 52.5552 54.3705C52.6152 54.5155 52.3922 54.6385 52.2942 54.5235C50.7452 52.7055 47.9742 48.7615 47.7122 45.7415C46.4472 45.8435 44.8892 44.8815 44.1732 46.7495C44.0782 46.9985 43.8882 47.1775 43.6082 47.1795C41.3962 47.1975 38.6292 44.9265 36.4262 44.6775C37.1902 49.0185 39.2632 52.3505 42.4932 55.2825C42.6302 55.4065 42.4562 55.5905 42.3092 55.5225C38.6292 53.8125 36.1892 48.5395 36.1412 44.6565C35.1222 44.6255 34.2412 45.0905 33.6152 46.5075C33.4832 46.8085 33.0392 46.6365 33.0322 46.3495C32.9502 42.7635 36.7752 43.6365 38.9542 44.5115C39.8422 44.8675 40.7472 45.1815 41.6422 45.5245C42.9032 46.0085 43.1102 45.9215 43.9422 44.9115C44.8862 43.7655 46.5352 44.8815 47.7002 45.0365C47.7162 44.7725 47.7462 44.5155 47.8132 44.2735C48.6132 41.3765 51.8802 38.5105 54.2272 36.8655C54.9832 36.3365 56.3342 35.2655 57.4032 35.6925C58.4922 36.1275 60.3782 37.0905 61.3712 35.7145C61.7632 35.1715 61.7052 34.5245 62.1952 34.0335C64.5222 31.7065 67.4812 34.2795 69.5452 35.9295C68.9122 34.3685 68.5742 32.7925 69.0012 31.1925C69.3702 29.8175 70.7542 29.2825 71.9922 29.1405C73.0712 29.0165 74.3762 29.6745 75.3742 29.9645C77.7182 30.6455 77.4222 26.5205 77.6862 25.4065C77.7722 25.0445 78.1442 24.8915 78.4802 24.9555C80.5862 25.3575 81.3072 25.8485 81.7602 24.0535C81.7202 24.0625 81.6762 24.0575 81.6352 24.0295C80.4212 23.1915 79.6822 21.7165 78.7972 20.5845C77.5502 18.9915 75.3572 21.2825 74.0632 21.7335C73.8282 21.8145 73.5302 21.6845 73.4162 21.4705C73.0492 20.7885 69.6232 15.6795 69.0842 16.9795C68.9392 17.3255 68.5752 17.6845 68.2112 17.7845C67.9072 17.8675 67.5212 17.8785 67.2282 17.7445C64.5852 16.5405 58.6312 12.9665 58.5472 19.8375C58.8442 20.3165 59.1192 20.8495 59.3732 21.4395C59.9762 21.6715 60.4022 21.8525 60.3832 21.8665C63.4952 19.5985 67.3952 24.9395 68.8312 26.8725C69.0702 27.1935 68.5612 27.5545 68.2922 27.2885C66.3642 25.3955 63.3972 21.1425 60.0662 23.6965C59.8562 23.8575 59.4422 23.8005 59.2782 23.5945C57.0842 20.8315 55.0142 22.4015 52.2692 21.3625C48.0342 19.7595 48.2602 22.8045 45.0762 22.8065C43.5262 22.8065 43.8982 22.8535 42.5852 22.6305C39.3922 22.0865 39.9122 23.7315 38.5172 25.1275C38.3092 25.3345 37.7142 25.2855 37.5562 25.2975C34.2042 25.5635 31.5292 28.9965 31.5272 32.4215C31.5272 32.9085 30.7792 32.9085 30.7712 32.4215C30.7432 30.8625 31.3802 28.9505 32.4472 27.3895C32.0962 26.8355 31.8992 26.2725 31.8392 25.7055C30.3962 28.6775 28.2482 31.5075 27.4872 34.6225C27.6292 34.8305 27.7652 35.0415 27.8932 35.2575C27.9852 35.4125 27.7912 35.6385 27.6322 35.5185C27.5392 35.4495 27.4462 35.3695 27.3542 35.2955C27.1712 36.3405 27.1562 37.4205 27.3872 38.5515C27.4232 38.5145 27.4552 38.4765 27.4902 38.4405C28.9292 36.9885 30.8472 36.0865 32.7342 35.3875C33.0502 35.2715 33.2992 35.5645 33.3312 35.8415C33.7272 39.2425 30.9832 41.7585 31.0312 45.2495C31.1182 51.7155 35.7142 53.7155 40.2642 56.9715C40.3922 57.0625 40.3182 57.3115 40.1502 57.2435C32.9982 54.3495 27.1042 47.4215 31.5682 39.5805C34.0222 35.2685 29.0702 38.2945 27.7392 39.7265C26.5772 40.9775 26.3552 41.9325 24.6582 42.1715C22.8412 42.4285 22.8142 40.6565 23.0922 39.1005C21.5612 40.8185 20.3442 42.6385 19.7882 44.9465C19.7602 45.9185 19.6992 46.8885 19.6662 47.8655C19.5382 51.7335 22.0972 55.3765 24.4442 58.1855C24.6072 58.3795 24.3642 58.6195 24.1702 58.4605C21.3692 56.1685 19.8192 53.5985 18.9162 50.1185C18.5682 48.7825 18.6282 47.4945 18.7102 46.1345C18.7552 45.4965 18.7802 44.8575 18.7862 44.2175C18.7932 43.9715 17.9132 40.1885 17.4932 42.3365C17.3942 42.8375 16.5352 42.8625 16.4602 42.3365C16.4422 42.2135 16.4282 42.0965 16.4112 41.9755C10.9262 53.2805 21.0352 66.1175 32.5172 68.0895C31.5232 66.8485 30.9422 65.3665 31.9852 64.0265C33.5272 62.0435 35.4082 61.2785 37.8422 60.8825C39.2022 60.6635 40.5032 60.6225 41.8852 60.3795ZM4.83916 69.7825C8.64716 74.3365 14.6882 76.5715 20.4222 77.2165C22.8992 77.4935 25.4472 77.0785 27.7772 76.2635C29.5782 75.6335 31.3472 74.7605 33.3152 75.0765C36.0622 75.5185 38.1272 75.9685 40.8892 75.1065C43.1542 74.4025 45.8512 73.6845 47.8602 72.2055C47.2402 72.2795 46.6222 72.3515 46.0072 72.4215C41.8992 72.8945 36.7002 73.3355 33.6312 70.0105C33.4112 69.7745 33.6832 69.4165 33.9692 69.5605C33.7192 69.3485 33.4632 69.1175 33.2152 68.8685C24.9652 68.4635 17.6442 62.3695 14.9012 54.9045C11.3652 51.7115 9.81818 47.0365 8.68118 42.5045C8.60718 42.2085 9.06017 42.0835 9.13717 42.3785C10.2342 46.5475 11.9482 50.0115 14.3952 53.3535C13.1912 48.9705 13.5812 44.2355 16.2592 39.9685C16.5662 39.4795 17.2152 39.7205 17.2732 40.2425C17.2802 40.3125 17.2912 40.3835 17.2972 40.4535C18.8382 40.5255 19.5962 41.4235 19.7522 42.9345C20.5802 40.7865 22.2072 39.0755 23.6102 37.0475C23.9562 36.5475 24.6562 36.8655 24.5592 37.4475C24.5222 37.6675 23.9472 42.3345 25.3642 40.7685C25.8212 40.2655 26.2692 39.7595 26.7252 39.2585C26.0352 37.6635 25.9552 36.0005 26.2852 34.3555C24.4042 32.5185 22.6162 29.8505 22.0482 27.2155C19.9092 26.7345 20.7952 29.4885 19.2852 29.9035C18.4092 30.1445 18.0862 29.9145 17.2892 29.5885C16.6882 29.3415 14.5002 32.6175 13.9362 33.2945C13.8172 33.4365 13.5792 33.4855 13.4082 33.4345C10.3112 32.5075 6.70419 40.2745 6.00219 42.2915C4.28519 47.2305 8.39117 52.7945 12.0122 55.5905C12.1092 55.6645 12.1522 55.7585 12.1592 55.8505C12.8532 56.1585 13.5302 56.5005 14.1862 56.8545C14.4822 57.0145 14.2732 57.4465 13.9642 57.3775C11.5402 56.8395 4.77417 53.6745 5.32717 58.3235C5.36117 58.6065 5.03918 58.9335 4.75518 58.8965C-2.16682 57.9775 3.00616 67.5945 4.83916 69.7825Z" fill="white"/>
<path d="M33.7011 66.7657C33.5771 66.6367 33.6991 66.3907 33.8831 66.4527C36.8381 67.4547 39.2852 68.4877 42.4782 68.7107C45.5342 68.9237 48.6441 68.5557 51.6711 68.1787C51.8551 68.1557 51.8971 68.4767 51.7151 68.5017C46.4541 69.2127 37.9221 71.1407 33.7011 66.7657Z" fill="white"/>
<path d="M36.2822 32.3304C37.0792 31.3204 37.8752 30.6924 39.1212 30.0704C39.6462 29.8074 41.3462 30.1594 41.5982 29.9874C43.8902 28.4344 46.9982 28.2864 49.6742 28.1094C51.8932 27.9624 62.7092 27.2524 62.8312 31.1994C62.8452 31.6344 62.2892 31.7194 62.0692 31.4054C60.6402 29.3554 56.1422 28.5944 51.7222 28.7854C51.8222 28.9294 51.8392 29.1334 51.6912 29.2644C51.2512 29.6524 50.7272 29.8394 50.1862 30.0544C49.5372 30.3144 46.9972 30.9524 48.5162 31.7214C49.0032 31.9684 48.7482 32.6934 48.2492 32.7044C45.5912 32.7674 46.3082 38.9294 47.9132 39.9794C48.2412 40.1944 47.9572 40.6664 47.6072 40.5004C45.6992 39.5924 44.8622 35.9834 45.6812 33.6634C45.0892 34.5084 44.6792 35.4884 44.4042 36.4744C44.2412 37.0624 44.1762 37.6974 44.3442 38.2904C44.4642 38.7194 44.9622 38.7624 45.0862 39.1914C45.1102 39.2774 45.0882 39.3914 45.0182 39.4514C44.9872 39.4784 44.9572 39.4924 44.9282 39.5154C46.0822 39.9374 47.1702 40.9964 48.1352 41.4854C48.3632 41.6004 48.2552 41.9714 48.0052 41.9624C46.1532 41.8914 44.7692 39.5884 42.9212 40.9854C42.7472 41.1174 42.5162 41.0614 42.3372 40.9854C41.2372 40.5194 40.6872 40.9394 39.6962 41.0304C39.5212 41.0464 39.4102 40.8804 39.3952 40.7294C39.1942 38.7844 42.2502 39.9324 43.0742 39.5434C43.1272 39.5174 43.1812 39.5034 43.2362 39.4824C42.8222 39.2504 42.3842 39.0534 41.9462 38.8774C41.4512 38.6784 40.8712 38.5874 40.5512 38.1194C40.3822 37.8714 40.4872 37.4454 40.7622 37.3154C40.8572 37.2714 40.9512 37.2624 41.0442 37.2464C41.0402 37.2314 41.0302 37.2184 41.0272 37.2034C40.8792 37.1844 40.7282 37.1834 40.5782 37.2084C40.2932 37.2554 40.0532 37.4784 39.7612 37.5434C39.6752 37.5624 39.6032 37.5304 39.5432 37.4774C40.0452 40.0374 38.8732 42.0464 36.2322 43.2744C35.7672 43.4904 35.3602 42.8044 35.8282 42.5824C38.3442 41.3894 39.6312 39.2784 38.3062 36.5714C38.1562 36.2654 38.3332 35.8364 38.7192 35.8524C41.3032 35.9664 41.2742 33.4644 40.5662 31.6474C38.9832 31.7014 37.7952 32.3604 37.0082 33.6424C36.8072 33.8864 36.5642 33.9124 36.3502 33.8244C34.1012 35.7144 34.5542 40.1354 34.5232 42.6844C34.5192 42.9454 34.1242 42.9454 34.1182 42.6844C34.0382 39.0144 33.9342 35.7574 35.9572 32.5804C36.0322 32.4644 36.1502 32.3814 36.2822 32.3304ZM39.4712 36.8024C39.4352 36.8064 39.4032 36.8174 39.3662 36.8204C39.3832 36.8764 39.4012 36.9324 39.4172 36.9884C39.4242 36.9194 39.4472 36.8614 39.4712 36.8024ZM40.9122 36.1984C41.0402 36.2044 41.1612 36.2184 41.2662 36.2424C41.4232 36.2784 41.5702 36.3344 41.7152 36.3974C41.7502 36.4014 41.7872 36.4244 41.8242 36.4374C41.8252 36.4354 41.8252 36.4334 41.8272 36.4314C41.8432 36.4374 41.8532 36.4484 41.8692 36.4544C41.9072 36.4704 41.9442 36.4734 41.9832 36.4984C42.0552 36.5424 42.1302 36.5914 42.2032 36.6374C42.4592 35.4134 43.2442 34.1494 43.9232 33.4734C44.1172 33.2794 44.4562 33.5314 44.3062 33.7694C43.8332 34.5254 43.4672 35.2994 43.2192 36.1584C43.0982 36.5754 43.0792 36.9294 43.1252 37.2634C43.2042 37.3234 43.2782 37.3874 43.3542 37.4504C43.3462 37.3134 43.3482 37.1974 43.3602 37.1124C43.5562 35.5944 44.3912 33.8404 45.7072 32.9904C45.8152 32.9204 45.9092 32.9714 45.9552 33.0564C46.2232 32.5764 46.5802 32.1874 47.0452 31.9444C45.8562 30.5524 49.0202 29.4294 50.7312 28.8474C47.0192 29.1284 43.5342 30.0744 42.1772 31.4854C42.0102 31.6594 41.6872 31.7714 41.4532 31.6764C41.4352 31.6754 41.4212 31.6754 41.4042 31.6744C42.1372 33.2274 42.0412 35.2034 40.9122 36.1984Z" fill="white"/>
</svg>
